HIERARCHY
ROOT Hips
{
  OFFSET 57.8543 91.8142 149.297
  CHANNELS 6 Xposition Yposition Zposition Zrotation Xrotation Yrotation
  JOINT ToSpine
  {
    OFFSET -2.69724 7.43032 -0.144315
    CHANNELS 3 Zrotation Xrotation Yrotation
    JOINT Spine
    {
      OFFSET -0.0310711 10.7595 1.96963
      CHANNELS 3 Zrotation Xrotation Yrotation
      JOINT Spine1
      {
        OFFSET 13.1342 3.43533 0.764692
        CHANNELS 3 Zrotation Xrotation Yrotation
        JOINT Neck
        {
          OFFSET 29.8703 7.82586 -0.130764
          CHANNELS 3 Zrotation Xrotation Yrotation
          JOINT Head
          {
            OFFSET 9.52751 0.295786 -0.907742
            CHANNELS 3 Zrotation Xrotation Yrotation
            End Site
            {
              OFFSET 16.4037 0.713936 2.7358
            }
          }
        }
        JOINT LeftShoulder
        {
          OFFSET 27.5574 4.95586 2.47156
          CHANNELS 3 Zrotation Xrotation Yrotation
          JOINT LeftArm
          {
            OFFSET 1.20734 -0.998971 20.1238
            CHANNELS 3 Zrotation Xrotation Yrotation
            JOINT LeftForeArm
            {
              OFFSET 26.8049 -0.0536703 -0.155908
              CHANNELS 3 Zrotation Xrotation Yrotation
              JOINT LeftHand
              {
                OFFSET 26.6817 0 0.320147
                CHANNELS 3 Zrotation Xrotation Yrotation
                End Site
                {
                  OFFSET 18.6119 0 0.382219
                }
              }
            }
          }
        }
        JOINT RightShoulder
        {
          OFFSET 27.5927 4.71444 -2.65209
          CHANNELS 3 Zrotation Xrotation Yrotation
          JOINT RightArm
          {
            OFFSET 2.83739 -1.17114 -18.7564
            CHANNELS 3 Zrotation Xrotation Yrotation
            JOINT RightForeArm
            {
              OFFSET 28.839 -0.0548439 1.22491
              CHANNELS 3 Zrotation Xrotation Yrotation
              JOINT RightHand
              {
                OFFSET 26.5114 0 -0.101894
                CHANNELS 3 Zrotation Xrotation Yrotation
                End Site
                {
                  OFFSET 18.2168 0 0
                }
              }
            }
          }
        }
      }
    }
  }
  JOINT LeftUpLeg
  {
    OFFSET -4.76168 -1.9167 -10.2353
    CHANNELS 3 Zrotation Xrotation Yrotation
    JOINT LeftLeg
    {
      OFFSET 2.55951 -42.0585 -8.02213
      CHANNELS 3 Zrotation Xrotation Yrotation
      JOINT LeftFoot
      {
        OFFSET 3.16357 -42.5282 -3.95426
        CHANNELS 3 Zrotation Xrotation Yrotation
        JOINT LeftToeBase
        {
          OFFSET 0.346054 -6.02161 12.8035
          CHANNELS 3 Zrotation Xrotation Yrotation
          End Site
          {
            OFFSET 0.134235 -1.35082 5.13018
          }
        }
      }
    }
  }
  JOINT RightUpLeg
  {
    OFFSET -4.94151 -1.41743 10.6446
    CHANNELS 3 Zrotation Xrotation Yrotation
    JOINT RightLeg
    {
      OFFSET -2.56294 -42.0364 -7.94377
      CHANNELS 3 Zrotation Xrotation Yrotation
      JOINT RightFoot
      {
        OFFSET -3.0952 -42.555 -4.02241
        CHANNELS 3 Zrotation Xrotation Yrotation
        JOINT RightToeBase
        {
          OFFSET -0.0828122 -6.13587 12.8035
          CHANNELS 3 Zrotation Xrotation Yrotation
          End Site
          {
            OFFSET -0.131328 -1.35082 5.13018
          }
        }
      }
    }
  }
}
MOTION
Frames:	10
Frame Time:	0.0333333
47.6168 96.9314 171.065 62.3884 -31.662 -15.61 -70.1915 0 88.8779 87.6357 67.4392 -5.89668 -1.63009 14.1603 9.53072 -136.025 32.3609 159.044 -157.942 74.1335 -179.368 0.804235 -13.353 -16.8888 -63.1875 37.8647 -152.478 6.47015 -1.3772 -101.122 0.420957 0.000576063 0.35866 -0.326148 3.37457 26.4827 -128.923 -37.0125 98.1739 13.726 9.26219 122.95 0.58676 0.000331018 0.0646652 -54.0191 20.073 101.191 0.87432 19.6698 -9.34413 -4.27799 2.8942 0.794846 -1.6674 3.73811 -0.188723 -36.3233 -14.1625 85.2175 1.68354 43.5137 -2.31612 -5.29395 -0.494582 0.848582 1.48004 -8.89927 -4.78072 
49.0011 96.424 168.621 61.7652 -34.0202 -16.6712 -70.1915 0 88.8779 86.5888 67.6672 -4.45131 -0.825579 14.3604 9.68654 -135.607 32.9305 158.712 -160.236 74.933 -177.035 0.696959 -14.1762 -18.1239 -63.9106 37.154 -151.779 7.70026 -1.54384 -100.47 0.420957 0.000576063 0.35866 -0.324965 3.25114 26.9805 -129.997 -36.0155 97.4764 15.051 9.44512 120.985 0.58676 0.000331018 0.0646652 -53.5547 19.9936 100.923 1.05303 20.6393 -9.78342 -4.33841 3.45951 0.869138 -2.6456 4.10679 3.20084 -35.834 -14.4119 87.6364 1.59867 42.2204 -2.12907 -5.81895 0.882483 0.877525 1.42234 -9.61987 -3.30549 
50.621 95.5177 165.712 61.313 -36.594 -17.7399 -70.1915 0 88.8779 89.0622 67.6303 -6.07363 -1.44071 14.4009 9.57026 -135.37 33.457 159.004 -164.994 75.6081 -172.763 0.700809 -13.9848 -18.502 -63.0549 37.225 -151.765 10.3388 -2.02704 -100.206 0.420957 0.000576063 0.35866 -0.594701 4.3812 29.2268 -131.707 -32.6941 97.469 17.7904 10.1592 118.422 0.58676 0.000331018 0.0646652 -53.0245 19.3676 100.005 0.617892 23.4074 -10.0263 -1.82486 4.88555 0.601359 1.78014 -5.24724 4.41704 -34.6368 -14.9703 90.2836 1.87548 42.2023 -0.143827 -6.49637 2.78716 0.930631 1.8345 -10.6002 -7.86056 
52.2008 94.337 162.419 60.7782 -39.0223 -18.9035 -70.1915 0 88.8779 90.4178 67.9137 -6.56362 -1.17664 14.9283 9.06005 -136.047 33.5431 157.618 -159.143 75.5971 -179.002 0.689751 -14.3929 -17.8121 -61.9456 37.1667 -153.073 9.20192 -1.65463 -99.3537 0.420957 0.000576063 0.35866 -0.657866 4.48443 30.2311 -133.448 -30.6959 98.5126 17.2296 8.95124 116.273 0.58676 0.000331018 0.0646652 -51.4546 17.6638 95.3941 -0.81623 30.1736 -3.75997 -0.802663 -2.3659 -0.188169 2.58876 -6.50569 3.20162 -31.947 -15.8879 92.978 1.77863 43.7974 -1.88527 -7.37193 3.6482 1.05348 1.30664 -10.3538 -0.754586 
53.5778 93.4705 159.152 60.0724 -41.7945 -20.8914 -70.1915 0 88.8779 94.5551 68.2702 -10.5886 -2.61469 15.4045 9.10527 -136.082 33.7185 157.902 -158.351 75.6755 -179.64 0.647549 -14.5959 -18.4398 -61.0841 37.6435 -152.393 9.47547 -1.67502 -99.1872 0.420957 0.000576063 0.35866 -0.681073 4.18634 32.0267 -133.194 -29.4032 101.899 16.038 7.60532 114.349 0.58676 0.000331018 0.0646652 -50.2734 15.8801 96.2977 -1.92933 35.4295 -3.57015 0.0198591 -7.08195 -0.649082 3.47287 -9.50604 9.48791 -28.3401 -16.4578 96.44 2.1001 46.1867 -1.15252 -5.48341 5.98681 0.680807 1.45468 -11.0557 -1.7364 
54.9222 92.8821 156.125 59.8137 -44.6601 -22.814 -70.1915 0 88.8779 99.2416 68.726 -15.2066 -3.80435 16.3391 8.59988 -135.506 33.7506 157.599 -158.874 75.8733 -178.11 0.594929 -14.951 -18.9136 -62.0835 36.4949 -151.518 7.41143 -1.35257 -99.5132 0.420957 0.000576063 0.35866 -0.873523 4.78531 33.5695 -134.201 -27.2317 103.454 15.0056 6.71546 113.194 0.58676 0.000331018 0.0646652 -50.4306 14.6576 100.806 -1.96097 38.2888 -2.12404 0.660189 -11.1372 -0.993347 3.42583 -9.55059 10.1882 -24.4018 -17.9851 97.4592 2.86125 49.4599 1.38568 0.0910159 7.11556 -0.416161 1.70132 -10.3105 -6.24171 
55.9172 92.4449 153.629 60.4516 -45.7909 -22.4706 -70.1915 0 88.8779 102.089 68.5947 -17.3562 -3.92708 16.5315 8.29831 -135.782 34.1932 157.872 -157.157 76.1378 -179.624 0.524674 -15.2461 -19.8354 -62.0476 35.7477 -150.697 7.92091 -1.43646 -99.4488 0.420957 0.000576063 0.35866 -1.04941 5.00475 36.1182 -134.675 -24.471 105.485 13.6798 5.92709 112.604 0.58676 0.000331018 0.0646652 -49.2005 14.5636 101.691 -2.74551 42.5647 -5.71531 0.098495 -13.621 -1.17538 3.89208 -10.9935 14.5184 -22.5017 -19.5574 95.5355 3.82184 52.9057 4.13329 -0.338572 5.35269 -0.204995 1.9257 -10.8042 -9.03711 
56.7422 92.0212 151.669 61.2106 -46.2747 -21.1029 -70.1915 0 88.8779 103.826 68.3455 -18.3111 -3.85634 16.2666 8.79351 -136.34 34.3072 158.532 -156.359 76.0209 179.232 0.511822 -15.105 -20.4529 -61.0554 35.4157 -150.421 8.74142 -1.61732 -99.6377 0.420957 0.000576063 0.35866 -1.09189 5.3177 35.5495 -134.928 -24.6875 103.736 13.7746 6.1397 113.182 0.58676 0.000331018 0.0646652 -47.2051 15.353 101.857 -3.44373 47.0731 -7.32887 -0.0781286 -15.1515 -1.30027 4.55213 -12.1632 15.7834 -22.1989 -20.1409 92.7399 5.21065 55.7364 9.30341 2.28298 5.27946 -0.66091 2.27029 -18.5123 -10.9836 
57.3873 91.7314 150.348 62.2862 -46.2784 -20.5986 -70.1915 0 88.8779 103.186 68.2527 -17.8988 -3.58292 16.2018 8.54164 -136.84 34.3809 159.342 -156.525 75.9146 179.18 0.496359 -15.0602 -20.9141 -60.051 35.4538 -149.768 9.15823 -1.81307 -100.324 0.420957 0.000576063 0.35866 -1.14237 5.41837 36.0497 -134.474 -24.0624 102.75 13.7493 6.39421 114.08 0.58676 0.000331018 0.0646652 -46.8636 14.198 101.831 -3.66936 48.7134 -7.23169 0.202279 -16.3883 -1.3985 4.17255 -11.6551 16.2736 -22.5172 -21.875 89.6104 4.93309 57.2707 5.07543 0.557683 4.91626 -0.327741 2.58631 -21.3633 -2.64446 
57.8543 91.8142 149.297 62.6439 -46.545 -20.7952 -70.1915 0 88.8779 101.849 69.0166 -16.8273 -3.55412 16.8457 8.63024 -136.395 35.0056 159.533 -156.621 76.5535 179.111 0.284779 -15.9975 -22.9025 -59.6473 33.8741 -148.103 11.2297 -2.31709 -100.737 0.420957 0.000576063 0.35866 -1.19372 5.26424 37.6754 -134.71 -21.4893 101.831 12.8374 6.28045 115.232 0.58676 0.000331018 0.0646652 -47.419 12.7889 102.043 -3.64463 48.1465 -7.64963 1.14942 -17.0834 -1.43321 4.07799 -11.8129 18.6526 -23.7505 -23.0953 86.4959 3.93535 55.27 1.90883 1.15595 2.96916 -0.263267 2.23724 -18.1279 0.529616 
